<svg width="192" height="192" viewBox="0 0 192 192" fill="none" xmlns="http://www.w3.org/2000/svg">
  <rect width="192" height="192" rx="24" fill="#8B5A3C"/>
  <rect x="16" y="16" width="160" height="160" rx="16" fill="#FAF7F4"/>
  
  <!-- Admin icon -->
  <circle cx="96" cy="70" r="20" fill="#8B5A3C"/>
  <path d="M96 100c-22 0-40 10-40 22v10h80v-10c0-12-18-22-40-22z" fill="#8B5A3C"/>
  
  <!-- Settings gear -->
  <g transform="translate(130, 130)">
    <circle cx="16" cy="16" r="6" fill="#8B5A3C"/>
    <path d="M16 4c-1.1 0-2 .9-2 2v2.17l-1.41.82c-.78.45-1.78.2-2.23-.58L9.54 7.59c-.45-.78-.2-1.78.58-2.23l.82-.47V4c0-1.1.9-2 2-2h4c1.1 0 2 .9 2 2v.89l.82.47c.78.45 1.03 1.45.58 2.23l-.82 1.42c-.45.78-1.45 1.03-2.23.58L16 8.17V6c0-1.1-.9-2-2-2z" fill="#8B5A3C" opacity="0.7"/>
  </g>
  
  <!-- Calendar icon -->
  <g transform="translate(40, 130)">
    <rect x="4" y="8" width="24" height="20" rx="2" fill="none" stroke="#8B5A3C" stroke-width="2"/>
    <path d="M8 6v4M20 6v4M8 14h8M8 18h6" stroke="#8B5A3C" stroke-width="2" stroke-linecap="round"/>
  </g>
</svg>